<?xml version="1.0" encoding="utf-8"?>
<!-- Generator: Adobe Illustrator 23.0.2, SVG Export Plug-In . SVG Version: 6.00 Build 0)  -->
<svg version="1.1" id="Слой_1" xmlns="http://www.w3.org/2000/svg" xmlns:xlink="http://www.w3.org/1999/xlink" x="0px" y="0px"
	 viewBox="0 0 149.2 24.2" style="enable-background:new 0 0 149.2 24.2;" xml:space="preserve">
<style type="text/css">
	.st0{clip-path:url(#SVGID_2_);fill:#2196F3;}
	.st1{clip-path:url(#SVGID_2_);fill:#FFFFFF;}
</style>
<g>
	<defs>
		<rect id="SVGID_1_" y="0" width="149.2" height="24.2"/>
	</defs>
	<clipPath id="SVGID_2_">
		<use xlink:href="#SVGID_1_"  style="overflow:visible;"/>
	</clipPath>
	<path class="st0" d="M32.2,0.3h-2.6c-0.3,0-0.5,0.1-0.7,0.2c-0.2,0.2-0.3,0.3-0.4,0.5l-6.6,16.7c0,0,0,0,0,0L19.3,24h2.6
		c0.3,0,0.5-0.1,0.7-0.2s0.3-0.3,0.4-0.5l6.6-16.7c0,0,0,0,0,0L32.2,0.3z"/>
	<path class="st0" d="M32.2,0.3h-2.6c-0.3,0-0.5,0.1-0.7,0.2c-0.2,0.2-0.3,0.3-0.4,0.5l-6.6,16.7c0,0,0,0,0,0L19.3,24h2.6
		c0.3,0,0.5-0.1,0.7-0.2s0.3-0.3,0.4-0.5l6.6-16.7c0,0,0,0,0,0L32.2,0.3z"/>
	<path class="st1" d="M0,0.3h2.6c0.3,0,0.5,0.1,0.7,0.2c0.2,0.1,0.3,0.3,0.4,0.5l6.7,16.7c0.2,0.4,0.3,0.8,0.4,1.2
		c0.1,0.4,0.3,0.9,0.4,1.4c0.1-0.5,0.2-0.9,0.3-1.4c0.1-0.4,0.3-0.8,0.4-1.2l6.6-16.7c0.1-0.2,0.2-0.4,0.4-0.5
		c0.2-0.2,0.4-0.2,0.7-0.2h2.6l-9.6,23.6H9.6L0,0.3z"/>
	<rect x="41.1" y="0.3" class="st1" width="3.2" height="23.6"/>
	<path class="st1" d="M59.5,14v9.9h-3.2V0.3H63c1.5,0,2.8,0.2,3.9,0.5s2,0.7,2.7,1.3c0.7,0.6,1.2,1.3,1.6,2.1
		c0.3,0.8,0.5,1.7,0.5,2.7c0,0.8-0.1,1.6-0.4,2.3c-0.3,0.7-0.6,1.4-1.1,2c-0.5,0.6-1.1,1.1-1.8,1.5c-0.7,0.4-1.5,0.7-2.5,0.9
		c0.4,0.2,0.7,0.6,1.1,1l6.9,9.4h-2.8c-0.6,0-1-0.2-1.3-0.7l-6.1-8.4c-0.2-0.3-0.4-0.5-0.6-0.6c-0.2-0.1-0.5-0.2-1-0.2H59.5z
		 M59.5,11.7h3.3c0.9,0,1.8-0.1,2.5-0.3c0.7-0.2,1.3-0.5,1.8-1c0.5-0.4,0.8-0.9,1.1-1.5c0.2-0.6,0.4-1.2,0.4-1.9
		c0-1.4-0.5-2.5-1.4-3.2c-0.9-0.7-2.3-1.1-4.1-1.1h-3.5V11.7z"/>
	<polygon class="st1" points="97.7,0.3 97.7,3 90.1,3 90.1,23.9 86.9,23.9 86.9,3 79.2,3 79.2,0.3 	"/>
	<path class="st1" d="M115.6,21.4c1,0,1.9-0.2,2.6-0.5c0.8-0.3,1.4-0.8,2-1.4c0.5-0.6,0.9-1.3,1.2-2.1c0.3-0.8,0.4-1.7,0.4-2.7V0.3
		h3.2v14.4c0,1.4-0.2,2.6-0.7,3.8c-0.4,1.2-1.1,2.2-1.9,3c-0.8,0.9-1.8,1.5-3,2c-1.2,0.5-2.5,0.7-3.9,0.7c-1.5,0-2.8-0.2-3.9-0.7
		c-1.2-0.5-2.2-1.2-3-2c-0.8-0.9-1.4-1.9-1.9-3s-0.7-2.4-0.7-3.8V0.3h3.2v14.4c0,1,0.1,1.9,0.4,2.7c0.3,0.8,0.7,1.5,1.2,2.1
		c0.5,0.6,1.2,1.1,2,1.4C113.7,21.2,114.6,21.4,115.6,21.4"/>
	<path class="st1" d="M147.9,4c-0.1,0.2-0.2,0.3-0.3,0.4c-0.1,0.1-0.3,0.1-0.4,0.1c-0.2,0-0.4-0.1-0.7-0.3s-0.6-0.4-0.9-0.6
		c-0.4-0.2-0.8-0.4-1.4-0.6c-0.5-0.2-1.2-0.3-1.9-0.3c-0.7,0-1.3,0.1-1.9,0.3c-0.6,0.2-1,0.5-1.4,0.8c-0.4,0.3-0.6,0.7-0.8,1.2
		c-0.2,0.4-0.3,0.9-0.3,1.4c0,0.7,0.2,1.2,0.5,1.6c0.3,0.4,0.8,0.8,1.3,1.1c0.5,0.3,1.1,0.6,1.8,0.8c0.7,0.2,1.4,0.5,2.1,0.7
		c0.7,0.2,1.4,0.5,2.1,0.8c0.7,0.3,1.3,0.7,1.8,1.1c0.5,0.5,1,1,1.3,1.7c0.3,0.7,0.5,1.5,0.5,2.5c0,1-0.2,2-0.5,2.9
		c-0.4,0.9-0.9,1.7-1.5,2.4c-0.7,0.7-1.5,1.2-2.5,1.6c-1,0.4-2.1,0.6-3.4,0.6c-1.5,0-2.9-0.3-4.2-0.8c-1.3-0.6-2.3-1.3-3.2-2.3
		l0.9-1.5c0.1-0.1,0.2-0.2,0.3-0.3c0.1-0.1,0.3-0.1,0.4-0.1c0.2,0,0.5,0.1,0.8,0.4c0.3,0.2,0.7,0.5,1.1,0.8c0.4,0.3,1,0.6,1.6,0.8
		c0.6,0.2,1.4,0.4,2.3,0.4c0.8,0,1.4-0.1,2-0.3s1.1-0.5,1.5-0.9c0.4-0.4,0.7-0.8,0.9-1.4c0.2-0.5,0.3-1.1,0.3-1.8
		c0-0.7-0.2-1.3-0.5-1.8c-0.3-0.5-0.8-0.8-1.3-1.1c-0.5-0.3-1.1-0.6-1.8-0.8c-0.7-0.2-1.4-0.4-2.1-0.7c-0.7-0.2-1.4-0.5-2.1-0.8
		c-0.7-0.3-1.3-0.7-1.8-1.2c-0.5-0.5-1-1.1-1.3-1.8c-0.3-0.7-0.5-1.6-0.5-2.6c0-0.8,0.2-1.6,0.5-2.4c0.3-0.8,0.8-1.5,1.4-2.1
		c0.6-0.6,1.4-1.1,2.3-1.5C140,0.2,141,0,142.2,0c1.3,0,2.5,0.2,3.6,0.6c1.1,0.4,2,1,2.9,1.8L147.9,4z"/>
</g>
</svg>
